<?xml version="1.0" encoding="UTF-8" standalone="no"?>
<!-- Created with Inkscape (http://www.inkscape.org/) -->

<svg
   xmlns:dc="http://purl.org/dc/elements/1.1/"
   xmlns:cc="http://creativecommons.org/ns#"
   xmlns:rdf="http://www.w3.org/1999/02/22-rdf-syntax-ns#"
   xmlns:svg="http://www.w3.org/2000/svg"
   xmlns="http://www.w3.org/2000/svg"
   version="1.1"
   width="100%"
   height="100%"
   viewBox="0 0 115.8 115.8"
   id="Layer_1"
   xml:space="preserve"><metadata
   id="metadata3021"><rdf:RDF><cc:Work
       rdf:about=""><dc:format>image/svg+xml</dc:format><dc:type
         rdf:resource="http://purl.org/dc/dcmitype/StillImage" /><dc:title></dc:title></cc:Work></rdf:RDF></metadata><defs
   id="defs3019" />

<style
   type="text/css"
   id="style3005" />

<g
   id="g3007">

	<path
   d="M 99.2,89 77.4,69.3 69.3,77.4 89,99.2 72.4,115.8 h 43.4 V 72.4 L 99.2,89 z m 0,0"
   id="path3009"
   style="fill:#ffffff;fill-opacity:0.79894182" />

	<path
   d="M 43.4,0 H 0 V 43.4 L 16.6,26.8 38.3,46.3 46.4,38.2 26.8,16.6 43.4,0 z m 0,0"
   id="path3011"
   style="fill:#ffffff;fill-opacity:0.79894182" />

	<path
   d="M 46.5,77.4 38.4,69.3 16.6,89 0,72.4 v 43.4 H 43.4 L 26.8,99.2 46.5,77.4 z m 0,0"
   id="path3013"
   style="fill:#ffffff;fill-opacity:0.79894182" />

	<path
   d="M 115.8,0 H 72.4 L 89,16.6 69.4,38.3 77.5,46.4 99.2,26.9 115.8,43.5 V 0 z m 0,0"
   id="path3015"
   style="fill:#ffffff;fill-opacity:0.79894182" />

</g>

</svg>