<?xml version="1.0" encoding="UTF-8" standalone="no"?>
<!-- Created with Inkscape (http://www.inkscape.org/) -->

<svg
   xmlns:dc="http://purl.org/dc/elements/1.1/"
   xmlns:cc="http://creativecommons.org/ns#"
   xmlns:rdf="http://www.w3.org/1999/02/22-rdf-syntax-ns#"
   xmlns:svg="http://www.w3.org/2000/svg"
   xmlns="http://www.w3.org/2000/svg"
   version="1.1"
   width="100%"
   height="100%"
   viewBox="0 0 16 16.1"
   id="Layer_1"
   xml:space="preserve"><metadata
   id="metadata6303"><rdf:RDF><cc:Work
       rdf:about=""><dc:format>image/svg+xml</dc:format><dc:type
         rdf:resource="http://purl.org/dc/dcmitype/StillImage" /><dc:title></dc:title></cc:Work></rdf:RDF></metadata><defs
   id="defs6301" />
<path
   d="m 16,9.3983049 v -2.9 l -1.8,-0.3 c -0.1,-0.4 -0.3,-0.8 -0.6,-1.4 l 1.1,-1.5 -2.1,-2.1 -1.5,1.1 c -0.5,-0.3 -1,-0.5 -1.4,-0.6 L 9.5,-0.10169511 H 6.6 L 6.3,1.6983049 c -0.5,0.1 -0.9,0.3 -1.4,0.6 l -1.5,-1.1 -2.1,2.1 1,1.5 c -0.3,0.5 -0.4,0.9 -0.6,1.4 l -1.7,0.2 v 2.9 l 1.8,0.3 c 0.1,0.5000001 0.3,0.9000001 0.6,1.4000001 l -1,1.5 2.1,2.1 1.5,-1 c 0.4,0.2 0.9,0.4 1.4,0.6 l 0.3,1.8 h 3 l 0.3,-1.8 c 0.5,-0.1 0.9,-0.3 1.4,-0.6 l 1.5,1.1 2.1,-2.1 -1.1,-1.5 c 0.3,-0.5 0.5,-1 0.6,-1.4000001 l 1.5,-0.3 z M 8,10.898305 c -1.7,0 -3,-1.3000001 -3,-3.0000001 0,-1.7 1.3,-3 3,-3 1.7,0 3,1.3 3,3 0,1.7 -1.3,3.0000001 -3,3.0000001 z"
   id="path6297"
   style="fill:#ffffff;fill-opacity:0.80952382;stroke:none" />
</svg>